<svg xmlns="http://www.w3.org/2000/svg" height="1200" width="1600" version="1.1" xmlns:xlink="http://www.w3.org/1999/xlink" xmlns:svgjs="http://svgjs.com/svgjs"><rect fill="#f3ebe9" width="1600" height="1200"></rect><g><path d="M1141.46 591.38H1112.55C1109.95 591.38 1107.8 589.23 1107.8 586.63V565.47C1107.8 562.87 1109.95 560.72 1112.55 560.72H1141.46C1149.92 560.72 1156.76 567.62 1156.76 576.02 1156.76 584.48 1149.92 591.38 1141.46 591.38ZM1115.74 583.44H1141.39C1145.43 583.44 1148.68 580.12 1148.68 576.08 1148.68 572.05 1145.36 568.73 1141.33 568.73H1115.68L1115.74 583.44Z" fill="#3c2c5b" opacity="1" stroke-width="4" stroke="none"></path><path d="M1082.67 602.25L1068.35 540.02C1068.35 539.95 1068.42 539.95 1068.48 539.95 1069.98 542.3 1081.5 559.03 1103.83 559.03H1104.16C1118.35 559.03 1131.5 551.93 1139.18 539.95 1139.24 539.89 1139.31 539.95 1139.24 540.02L1124.99 602.25C1123.82 607.27 1119.39 610.78 1114.25 610.78H1093.35C1088.27 610.78 1083.84 607.2 1082.67 602.25Z" fill="#fe4f32" opacity="1" stroke-width="4" stroke="none"></path><path d="M1103.83 559.09C1080.39 559.09 1068.87 540.67 1068.29 539.76V539.69L1139.11 539.95C1139.11 539.95 1139.18 539.95 1139.11 540.02 1133.71 553.23 1118.48 559.09 1104.09 559.09 1104.16 559.09 1103.83 559.09 1103.83 559.09Z" fill="#3c2c5b" opacity="1" stroke-width="4" stroke="none"></path></g><g><path d="M709.1 388.99V388.88C706.74 385.28 705.83 382.13 706.74 379.31 707.86 375.6 711.35 373.69 712.36 373.12 712.36 373.12 712.48 373.01 712.36 373.01 710.67 369.75 710.67 367.04 711.69 364.68 713.6 360.96 718.1 359.73 719.23 359.5 719.23 359.5 719.34 359.5 719.34 359.39 719.57 352.41 723.85 348.81 731.84 348.81 734.99 348.81 738.93 349.37 742.42 350.61 742.53 350.61 742.53 350.61 742.53 350.5 744.56 338.79 748.05 332.48 752.55 332.48 759.64 332.15 759.87 354.32 763.7 360.85 774.28 385.17 771.8 399.8 771.58 401.38 771.58 401.38 771.58 401.38 771.58 401.49L786.55 425.24C786.66 425.47 786.66 425.69 786.43 425.81 781.93 428.39 736.45 454.4 733.86 455.86 733.75 455.86 733.75 455.86 733.75 455.75 730.15 444.72 723.62 425.47 719.68 413.87 719.68 413.87 719.68 413.87 719.68 413.76 710.22 408.47 705.61 402.84 705.16 397.55 704.82 392.93 708.2 389.78 709.1 388.99Z" fill="#cf5934" opacity="1" stroke-width="4" stroke="none"></path><path d="M954.28 279.46C984.22 279.91 1006.62 237.25 983.21 217.55 969.02 206.29 948.54 212.71 937.17 226.78 919.72 247.49 927.6 279.24 954.28 279.46Z" fill="#010005" opacity="1" stroke-width="4" stroke="none"></path><path d="M884.82 943.07C887.07 872.03 865.91 827.46 894.5 761.38H792.51C790.37 774.89 789.36 788.39 788.57 801.11 785.76 847.94 789.47 896.46 792.85 942.95L793.64 943.52 841.03 960.74 884.82 943.07Z" fill="#cf5934" opacity="1" stroke-width="4" stroke="none"></path><path d="M894.39 761.71C895.52 760.81 823.47 761.71 823.58 761.38L882.91 797.85C882.91 797.85 887.19 777.14 894.39 761.71Z" fill="#030202" opacity="0.2" stroke-width="4" stroke="none"></path><path d="M1041.07 943.07C1040.96 926.97 1039.94 910.98 1037.58 895.22 1032.4 857.06 1018.55 827.79 1014.28 793.23 1013.26 782.77 1012.81 772.18 1013.04 761.71 1013.49 761.04 912.63 761.71 912.63 761.49 916.9 804.83 927.26 861.11 935.48 895.34 939.08 911.43 943.02 929.11 945.83 943.18 945.83 943.63 993.23 953.65 993.23 953.65 993.23 953.65 1040.84 942.84 1041.07 943.07Z" fill="#cf5934" opacity="1" stroke-width="4" stroke="none"></path><path d="M989.85 761.83C990.41 760.48 912.74 761.94 912.63 761.49 913.86 774.55 915.55 785.35 917.02 796.84 918.48 796.27 989.96 761.49 989.85 761.83Z" fill="#030202" opacity="0.2" stroke-width="4" stroke="none"></path><path d="M1013.04 761.83C1014.5 688.66 1032.51 624.83 983.88 549.86 983.77 549.97 861.97 549.63 861.97 549.97 861.41 550.98 808.16 648.47 792.29 761.38 791.61 762.39 1013.04 761.49 1013.04 761.83Z" fill="#3c2c5b" opacity="1" stroke-width="4" stroke="none"></path><path d="M1012.7 618.64C1007.64 593.99 998.07 570.8 984 549.97H891.46C890.9 549.97 919.16 594.44 1012.59 618.86 1012.7 618.86 1012.7 618.75 1012.7 618.64Z" fill="#000000" opacity="0.2" stroke-width="4" stroke="none"></path><path d="M956.08 548.84C956.08 548.84 976.9 589.37 976.9 672 976.9 742.47 976.34 761.6 976.34 761.6" stroke="#000000" stroke-width="4" stroke-linecap="round" stroke-linejoin="round" opacity="1" fill="none"></path><path d="M947.97 382.58L946.51 377.63C947.07 368.96 945.16 370.42 945.72 361.98 947.3 336.99 948.76 315.37 948.99 304.68 950 279.13 926.81 257.85 900.58 259.2 879.08 259.2 865.57 261.11 855.44 274.74 846.21 287.01 847.56 310.87 844.52 325.96 841.71 338.11 839.91 351.96 847.79 362.2 856.12 372 868.84 374.59 879.08 372.22V382.69C887.41 382.69 940.99 382.69 947.97 382.58Z" fill="#cf5934" opacity="1" stroke-width="4" stroke="none"></path><path d="M898.55 364C893.71 366.82 884.37 370.31 879.08 372.22" stroke="#030202" stroke-width="4" stroke-linecap="round" stroke-linejoin="round" opacity="1" fill="none"></path><path d="M921.86 332.82L912.96 336.31" stroke="#030202" stroke-width="4" stroke-linecap="round" stroke-linejoin="round" opacity="1" fill="none"></path><path d="M867.94 328.88L867.71 328.66C866.58 327.64 866.25 326.18 866.7 324.72L867.37 322.24" stroke="#030202" stroke-width="4" stroke-linecap="round" stroke-linejoin="round" opacity="1" fill="none"></path><path d="M874.69 337.44C871.65 341.15 866.47 341.04 864.9 339.8" stroke="#030202" stroke-width="4" stroke-linecap="round" stroke-linejoin="round" opacity="1" fill="none"></path><path d="M882.46 314.47C878.63 314.47 878.63 320.33 882.46 320.33 886.28 320.33 886.28 314.47 882.46 314.47Z" fill="#010005" opacity="1" stroke-width="4" stroke="none"></path><path d="M857.58 310.76C853.75 310.76 853.75 316.61 857.58 316.61 861.41 316.61 861.41 310.76 857.58 310.76Z" fill="#010005" opacity="1" stroke-width="4" stroke="none"></path><path d="M872.44 1044.04C876.6 1023.78 883.81 983.48 884.82 942.73H792.85C794.54 970.31 793.98 990.35 786.66 1003.4 781.59 1012.63 769.66 1019.61 763.02 1025.35 754.01 1032.33 747.49 1037.51 743.43 1043.59 743.43 1043.7 743.43 1043.7 743.55 1043.82 747.15 1044.27 799.49 1052.48 799.49 1052.48 799.49 1052.48 870.07 1044.15 872.44 1044.04 872.44 1044.15 872.44 1044.15 872.44 1044.04Z" fill="#efdcd7" opacity="1" stroke-width="4" stroke="none"></path><path d="M1041.07 942.95C1038.25 942.95 950.9 943.18 945.83 943.18 951.46 977.74 954.16 997.66 939.31 1011.85 933 1017.14 927.49 1021.53 922.64 1025.24 913.41 1032.45 906.77 1037.62 902.83 1043.82V1043.93C908.8 1047.64 962.16 1053.61 962.16 1053.61 962.16 1053.61 1031.5 1044.27 1031.73 1044.27 1032.29 1039.76 1040.96 980.55 1041.07 942.95Z" fill="#efdcd7" opacity="1" stroke-width="4" stroke="none"></path><path d="M989.62 579.35C1107.82 581.38 1021.26 443.25 1008.09 427.72 985.57 396.09 952.25 391.47 947.52 391.02 947.64 388.66 947.75 384.72 947.97 382.24H879.08L878.97 390.8C878.97 390.91 878.97 390.91 878.85 390.91 875.25 390.91 835.4 393.5 804.45 452.48 804.33 452.82 803.88 452.82 803.77 452.48L786.66 424.9H786.55L733.75 455.07C751.43 510.46 775.52 537.93 806.36 537.7 829.44 537.7 849.36 513.61 851.95 510.35L862.31 550.31H938.63L937.28 572.48C956.64 577.44 974.54 579.24 989.62 579.35Z" fill="#61ccff" opacity="1" stroke-width="4" stroke="none"></path><path d="M977.58 516.2C974.43 507.98 965.42 486.93 963.06 481.53 962.94 481.3 962.61 481.41 962.72 481.64 963.85 500.44 951.8 513.95 948.54 517.21 948.2 517.55 948.42 518 948.87 518 956.53 518 970.04 518.11 976.23 518.23 977.13 518.45 977.92 517.32 977.58 516.2Z" fill="#686868" opacity="0.2" stroke-width="4" stroke="none"></path><path d="M851.95 604.45C855.44 604.45 868.27 594.1 880.32 577.78 901.37 574.4 914.54 567.76 915.67 567.19 923.32 569.33 935.93 572.37 937.5 572.82 937.62 572.82 937.62 572.82 937.62 572.71 937.39 572.71 941.44 517.44 940.77 517.89 917.69 518.11 885.83 520.03 865.8 527.68 850.94 533.31 821.44 556.95 815.82 573.16 814.58 576.76 814.58 579.69 815.93 582.05 814.92 585.09 815.14 587.68 816.38 589.48 817.5 591.06 819.53 591.96 822.23 591.96 824.15 594.44 826.62 595.67 829.77 595.67 837.2 595.67 846.77 588.92 854.31 583.52 855.1 582.95 857.58 580.93 857.58 581.38 851.16 590.95 844.97 602.88 851.95 604.45Z" fill="#cf5934" opacity="1" stroke-width="4" stroke="none"></path><path d="M832.25 528.69C839.46 523.74 846.43 517.44 851.84 510.46V510.35C851.5 508.88 843.06 473.76 842.38 471.06 842.38 470.95 842.27 470.95 842.16 470.95 837.77 474.44 837.77 482.09 837.65 492.33 837.65 503.48 837.99 503.7 835.74 517.1 835.74 517.1 832.93 525.66 831.8 528.47 831.91 528.69 832.14 528.81 832.25 528.69Z" fill="#686868" opacity="0.2" stroke-width="4" stroke="none"></path><path d="M978.37 518.45C964.18 517.55 952.59 517.89 940.99 517.89" stroke="#686868" stroke-width="4" stroke-linecap="round" stroke-linejoin="round" opacity="1" fill="none"></path><path d="M978.48 518.23L962.61 480.74" stroke="#686868" stroke-width="4" stroke-linecap="round" stroke-linejoin="round" opacity="1" fill="none"></path><path d="M850.82 550.98C839.34 558.98 823.02 574.06 815.93 582.05" stroke="#030202" stroke-width="4" stroke-linecap="round" stroke-linejoin="round" opacity="1" fill="none"></path><path d="M859.72 561.68C845.53 571.47 827.52 586.67 822.23 591.96" stroke="#030202" stroke-width="4" stroke-linecap="round" stroke-linejoin="round" opacity="1" fill="none"></path><path d="M868.61 572.26L857.8 581.04" stroke="#030202" stroke-width="4" stroke-linecap="round" stroke-linejoin="round" opacity="1" fill="none"></path><path d="M1036.23 475.45C1036.23 475.45 1036.34 475.56 1036.34 475.45 1081.14 458.45 1082.94 394.29 1044.22 374.47 1034.65 369.41 1025.65 368.28 1023.85 368.17 1023.73 368.17 1023.73 368.06 1023.73 368.06 1026.43 329.22 987.71 307.94 951.69 327.19 951.58 327.19 951.46 327.19 951.58 327.08 952.36 315.26 952.93 305.81 953.04 298.83 954.16 275.07 933.34 254.25 909.59 253.46 883.7 252.56 862.76 260.33 852.85 279.13V279.24C853.64 280.03 861.86 287.79 891.69 278 891.8 278 891.91 278.11 891.8 278.11 882.79 292.75 894.95 300.85 912.4 298.15 912.51 298.15 912.51 298.26 912.51 298.26 909.81 304.68 908.46 310.76 910.15 319.09V319.31L910.37 319.2C912.74 318.08 934.69 311.21 938.52 324.38 942.68 337.32 920.06 350.95 919.04 351.73 919.04 351.73 919.04 351.73 919.04 351.85 918.82 353.65 913.19 413.42 975.78 425.35 975.89 425.35 976 425.35 976.12 425.35 982.76 426.48 989.4 427.16 996.15 427.27 999.53 427.72 1004.15 426.37 1007.07 427.61 1020.47 443.93 1035.33 473.65 1036.23 475.45Z" fill="#010005" opacity="1" stroke-width="4" stroke="none"></path><path d="M851.95 510.46L842.38 471.06" stroke="#686868" stroke-width="4" stroke-linecap="round" stroke-linejoin="round" opacity="1" fill="none"></path><path d="M804.11 453.16L796.57 440.78" stroke="#686868" stroke-width="4" stroke-linecap="round" stroke-linejoin="round" opacity="1" fill="none"></path><path d="M878.97 390.91C878.97 390.91 872.44 390.91 865.12 393.61" stroke="#686868" stroke-width="4" stroke-linecap="round" stroke-linejoin="round" opacity="1" fill="none"></path><path d="M944.93 1006.56L959.46 1014.89" stroke="#494646" stroke-width="4" stroke-linecap="round" stroke-linejoin="round" opacity="1" fill="none"></path><path d="M785.98 1006.56L800.51 1014.89" stroke="#494646" stroke-width="4" stroke-linecap="round" stroke-linejoin="round" opacity="1" fill="none"></path><path d="M898.33 364.12C889.44 368.84 881.22 371.43 879.42 372 879.19 372.11 879.08 372.22 879.08 372.45L878.97 390.46C878.97 390.91 879.53 391.13 879.87 390.8L899 364.9C899.34 364.34 898.89 363.78 898.33 364.12Z" fill="#030202" opacity="0.2" stroke-width="4" stroke="none"></path><path d="M1028.57 1060.93C1028.91 1059.46 1030.26 1053.27 1031.73 1044.38 1031.73 1044.38 905.87 1043.93 902.83 1043.93H902.72C899.68 1048.66 898.33 1053.83 898.22 1060.48 898.22 1060.81 898.44 1061.04 898.78 1061.04 907.79 1061.04 1021.03 1061.26 1028.12 1061.26 1028.35 1061.26 1028.46 1061.15 1028.57 1060.93Z" fill="#494646" opacity="1" stroke-width="4" stroke="none"></path><path d="M868.5 1061.26C868.61 1061.26 868.61 1061.26 868.5 1061.26 868.84 1060.48 870.52 1053.95 872.44 1044.27V1044.15C869.51 1044.15 746.36 1043.7 743.43 1043.7H743.32C739.94 1048.54 738.82 1053.61 738.7 1060.48 738.7 1060.81 739.04 1061.15 739.38 1061.15 749.4 1061.26 865.12 1061.26 868.5 1061.26Z" fill="#494646" opacity="1" stroke-width="4" stroke="none"></path><path d="M849.14 943.07C849.14 943.07 849.14 1001.38 837.99 1044.15" stroke="#494646" stroke-width="4" stroke-linecap="round" stroke-linejoin="round" opacity="1" fill="none"></path><path d="M1008.99 943.07C1008.99 943.07 1008.99 1001.38 997.84 1044.15" stroke="#494646" stroke-width="4" stroke-linecap="round" stroke-linejoin="round" opacity="1" fill="none"></path><path d="M722.16 402.73C726.77 402.28 733.53 399.69 730.04 391.58 733.86 392.26 741.07 392.71 744.11 388.54 745.91 386.18 746.02 382.58 744.67 378.08 745.8 377.85 750.3 376.72 751.76 373.12 752.89 370.53 751.99 367.16 749.17 363.33 752.89 359.28 752.21 352.86 742.64 350.61" stroke="#030202" stroke-width="4" stroke-linecap="round" stroke-linejoin="round" opacity="1" fill="none"></path><path d="M719.57 359.39C729.47 359.39 739.49 360.06 748.95 363.1" stroke="#030202" stroke-width="4" stroke-linecap="round" stroke-linejoin="round" opacity="1" fill="none"></path><path d="M712.48 373.01C732.63 372.67 744.45 377.74 744.45 377.74" stroke="#000000" stroke-width="4" stroke-linecap="round" stroke-linejoin="round" opacity="1" fill="none"></path><path d="M709.1 388.88C719.57 387.53 730.04 391.58 730.04 391.58" stroke="#030202" stroke-width="4" stroke-linecap="round" stroke-linejoin="round" opacity="1" fill="none"></path></g><g><path d="M869.84 594.31H714.48V602.25L737.47 610.31H858.58C864.87 610.31 869.84 605.09 869.84 598.93V594.31Z" fill="#fe4f32" opacity="1" stroke-width="4" stroke="none"></path><path d="M543 482.79L681.53 482.79C693.62 482.79 705.95 492.51 709.15 504.6L737.47 610.19 567.41 610.31C560.3 610.31 554.14 605.57 552.36 598.69L527.12 504.48C523.92 492.51 531.03 482.79 543 482.79Z" fill="#fe4f32" opacity="1" stroke-width="4" stroke="none"></path><path d="M616.85 558.26C610.35 552.57 608.6 543.93 612.97 538.95 617.31 533.98 626.11 534.56 632.61 540.24 639.12 545.93 640.86 554.57 636.5 559.55 632.15 564.53 623.36 563.95 616.85 558.26Z" fill="#ffc930" opacity="1" stroke-width="4" stroke="none"></path><path d="M732.61 594.31L551.17 594.31" stroke="#431c15" stroke-width="4" stroke-linecap="round" stroke-linejoin="round" opacity="1" fill="none"></path></g><g><path d="M1203.78 648.52H491.56V1061.66H1203.78V648.52Z" fill="#efdcd7" opacity="1" stroke-width="4" stroke="none"></path><path d="M491.56 648.52H1203.65V908.93L491.56 690.74V648.52Z" fill="#dcbdb5" opacity="0.3" stroke-width="4" stroke="none"></path><path d="M1203.78 968.79H491.56V1061.99H1203.78V968.79Z" fill="#ffffff" opacity="1" stroke-width="4" stroke="none"></path><path d="M1203.65 610.34H432.16V669.85H1203.65V610.34Z" fill="#ffffff" opacity="1" stroke-width="4" stroke="none"></path><path d="M491.17 669.85H1203.65" stroke="#2d0c04" stroke-width="4" stroke-linecap="round" stroke-linejoin="round" opacity="1" fill="none"></path><path d="M491.17 968.79H1203.65" stroke="#2d0c04" stroke-width="4" stroke-linecap="round" stroke-linejoin="round" opacity="1" fill="none"></path></g><g><path d="M706.85 125.42L806.83 125.42C824.77 125.42 839.29 139.94 839.29 157.88V223.93C839.29 241.87 824.77 256.39 806.83 256.39H802.1V275.26C802.1 277.1 800.63 278.57 798.79 278.57 798.13 278.57 797.48 278.35 796.94 277.97L765.35 256.39H706.91C688.97 256.39 674.45 241.87 674.4 223.93V157.88C674.4 139.94 688.91 125.42 706.85 125.42Z" fill="#ffffff" opacity="1" stroke-width="4" stroke="none"></path><path d="M802.1 265.8L770.35 259.82 765.35 256.39H802.1V265.8Z" fill="#676767" opacity="0.2" stroke-width="4" stroke="none"></path><path d="M724.96 201.1C719.34 201.1 714.79 196.55 714.79 190.93 714.79 185.32 719.34 180.77 724.96 180.77 730.57 180.77 735.12 185.32 735.12 190.93 735.12 196.55 730.57 201.1 724.96 201.1Z" fill="#ffffff" opacity="1" stroke-width="4" stroke="none"></path><path d="M756.87 201.1C751.25 201.1 746.7 196.55 746.7 190.93 746.7 185.32 751.25 180.77 756.87 180.77 762.49 180.77 767.04 185.32 767.04 190.93 767.04 196.55 762.49 201.1 756.87 201.1Z" fill="#ffffff" opacity="1" stroke-width="4" stroke="none"></path><path d="M788.73 201.1C783.11 201.1 778.56 196.55 778.56 190.93 778.56 185.32 783.11 180.77 788.73 180.77 794.34 180.77 798.9 185.32 798.9 190.93 798.9 196.55 794.34 201.1 788.73 201.1Z" fill="#ffffff" opacity="1" stroke-width="4" stroke="none"></path></g><g><path d="M788.21 159.79C806.04 177.63 806.04 206.53 788.21 224.36 770.38 242.2 741.47 242.2 723.64 224.36 705.81 206.53 705.81 177.63 723.64 159.79 741.47 141.97 770.38 141.97 788.21 159.79Z" fill="#fe4f32" opacity="1" stroke-width="4" stroke="none"></path><path d="M769.94 170.6C769.64 170.6 769.36 170.65 769.07 170.74 767.74 171.15 759.65 175.9 755.31 178.45L753.71 179.39C753.02 179.77 752.51 180.41 752.29 181.17L746.32 201.61C746.14 202.29 746.19 203 746.45 203.65 746.72 204.3 747.19 204.84 747.79 205.19 751.06 207.09 754.55 208.59 758.17 209.65L768.39 212.64C768.77 212.75 769.16 212.8 769.56 212.8 770.27 212.8 770.97 212.62 771.58 212.27 772.2 211.91 772.72 211.4 773.07 210.8 773.4 210.18 773.56 209.49 773.53 208.8 773.5 208.11 773.29 207.43 773.32 207.37L773.44 207.22C774.03 206.65 774.71 206.61 775.4 206.12 776.09 205.61 776.6 204.9 776.85 204.08 777.01 203.55 777.05 203 776.96 202.45 776.88 201.91 776.82 201.76 776.96 201.47L777.08 201.28C777.34 200.96 778.17 200.69 778.86 200.2 779.55 199.69 780.06 198.98 780.31 198.16 780.51 197.51 780.53 196.82 780.36 196.16 780.19 195.5 779.85 194.9 779.97 194.74 780.1 194.27 780.77 193.89 781.28 193.34 781.8 192.79 782.14 192.09 782.25 191.35 782.36 190.38 782.12 189.39 781.57 188.58 781.02 187.77 780.2 187.18 779.25 186.93L767.88 183.27C767.45 183.12 767.65 182.79 767.85 182.46 769.28 180.1 770.9 177.43 771.87 174.53 772.42 172.92 772.1 171.97 771.73 171.46 771.53 171.19 771.25 170.96 770.94 170.81 770.63 170.66 770.29 170.59 769.94 170.6V170.6Z" fill="#ffffff" opacity="1" stroke-width="4" stroke="none"></path><path d="M738.62 173.07C738.11 173.07 737.62 173.23 737.21 173.53 736.81 173.83 736.51 174.25 736.36 174.73L729.13 199.57C728.98 200.15 729.05 200.78 729.35 201.31 729.65 201.84 730.13 202.24 730.72 202.42L739.36 204.93C739.56 204.99 739.76 205.01 739.96 205.01 740.46 205.01 740.95 204.85 741.36 204.56 741.77 204.26 742.07 203.83 742.21 203.35L749.44 178.56C749.44 178.56 749.44 178.55 749.44 178.55 749.44 178.54 749.45 178.54 749.45 178.53 749.45 178.53 749.46 178.53 749.46 178.53 749.47 178.52 749.48 178.52 749.48 178.52 749.56 178.23 749.59 177.94 749.55 177.64 749.52 177.34 749.42 177.06 749.28 176.79 749.13 176.53 748.94 176.31 748.7 176.12 748.47 175.93 748.2 175.8 747.91 175.71L739.21 173.15C739.02 173.1 738.82 173.07 738.62 173.07V173.07Z" fill="#ffffff" opacity="1" stroke-width="4" stroke="none"></path></g></svg>