<svg xmlns="http://www.w3.org/2000/svg" height="1200" width="1600" version="1.1" xmlns:xlink="http://www.w3.org/1999/xlink" xmlns:svgjs="http://svgjs.com/svgjs"><rect fill="#f3ebe9" width="1600" height="1200"></rect><g><path d="M1100.5 268.25H506.53C466.31 268.25 433.79 300.77 433.79 340.99V899.04C433.79 939.27 466.31 971.79 506.53 971.79H1100.5C1140.72 971.79 1173.24 939.27 1173.24 899.04V340.99C1173.24 300.77 1140.59 268.25 1100.5 268.25Z" fill="#ffffff" opacity="1" stroke-width="4" stroke="none"></path><path d="M513.33 397.41C529.85 397.41 543.23 384.03 543.23 367.5 543.23 350.98 529.85 337.6 513.33 337.6 496.8 337.6 483.42 350.98 483.42 367.5 483.42 384.03 496.8 397.41 513.33 397.41Z" fill="#f3ebe9" opacity="1" stroke-width="4" stroke="none"></path><path d="M600.17 397.41C616.69 397.41 630.08 384.03 630.08 367.5 630.08 350.98 616.69 337.6 600.17 337.6 583.65 337.6 570.27 350.98 570.27 367.5 570.27 384.03 583.65 397.41 600.17 397.41Z" fill="#f3ebe9" opacity="1" stroke-width="4" stroke="none"></path><path d="M687.15 397.41C703.67 397.41 717.06 384.03 717.06 367.5 717.06 350.98 703.67 337.6 687.15 337.6 670.63 337.6 657.25 350.98 657.25 367.5 657.25 384.03 670.63 397.41 687.15 397.41Z" fill="#f3ebe9" opacity="1" stroke-width="4" stroke="none"></path></g><g><path d="M709.67 494.43L635.26 614.31C624.61 631.47 621.58 652.25 626.77 671.74L661.94 803.32C672.42 842.65 712.87 866.12 752.29 855.56L920.85 810.6C960.27 800.12 983.65 759.67 973.17 720.25L938 588.67C932.81 569.18 919.73 552.64 901.97 543.11L777.75 476.24C753.76 463.42 723.96 471.3 709.67 494.43Z" fill="#ffc930" opacity="1" stroke-width="4" stroke="none"></path><path d="M746.22 494.86C752.98 493.04 760.17 493.91 766.41 497.2L890.62 564.07C902.58 570.57 911.33 581.66 914.88 594.82L950.05 726.49C957.15 753.17 941.3 780.45 914.7 787.64L746.05 832.51C719.37 839.62 692.09 823.77 684.9 797.17L649.81 665.59C646.35 652.43 648.43 638.48 655.53 626.87L729.85 506.99C733.58 501.01 739.38 496.68 746.22 494.86ZM740.07 471.82C727.43 475.2 716.6 483.26 709.67 494.43L635.26 614.31C624.61 631.47 621.58 652.25 626.77 671.74L661.94 803.32C672.42 842.65 712.87 866.12 752.29 855.56L920.85 810.6C960.27 800.12 983.65 759.67 973.17 720.25L938 588.67C932.81 569.18 919.73 552.64 901.97 543.11L777.75 476.24C766.15 470 752.72 468.44 740.07 471.82Z" fill="#61ccff" opacity="1" stroke-width="4" stroke="none"></path><path d="M854.97 608.59L679.8 655.33 724.37 822.39 899.54 775.65 854.97 608.59Z" fill="#000000" opacity="0.2" stroke-width="4" stroke="none"></path><path d="M865.79 591.01L690.62 637.75 735.19 804.8 910.37 758.06 865.79 591.01Z" fill="#ffffff" opacity="1" stroke-width="4" stroke="none"></path><path d="M807.9 726.06L625.82 668.28 661.85 803.24C672.34 842.56 712.79 866.04 752.2 855.47L920.68 810.51C960.09 800.03 983.48 759.58 973 720.25L936.96 585.3 807.9 726.06Z" fill="#61ccff" opacity="1" stroke-width="4" stroke="none"></path><path d="M797.07 685.52L670.69 823.51C687.93 850.88 720.93 863.87 752.2 855.56L920.68 810.51C951.95 802.2 974.13 774.48 975.43 742.17L797.07 685.52Z" fill="#61ccff" opacity="1" stroke-width="4" stroke="none"></path><path d="M791.44 777.77L847.92 762.7C855.89 760.53 864.03 765.3 866.19 773.26 868.36 781.23 863.6 789.38 855.63 791.54L799.15 806.61C791.18 808.78 783.04 804.02 780.87 796.05 778.71 787.99 783.47 779.85 791.44 777.77Z" fill="#ffc930" opacity="1" stroke-width="4" stroke="none"></path><path d="M802.18 790.24L844.8 778.9" stroke="#181818" stroke-width="4" stroke-linecap="round" stroke-linejoin="round" opacity="1" fill="none"></path><path d="M670.6 824.11L769.87 714.45" stroke="#181818" stroke-width="4" stroke-linecap="round" stroke-linejoin="round" opacity="1" fill="none"></path><path d="M834.75 697.47L974.73 741.82" stroke="#181818" stroke-width="4" stroke-linecap="round" stroke-linejoin="round" opacity="1" fill="none"></path><path d="M651.55 673.82L627.73 666.63" stroke="#181818" stroke-width="4" stroke-linecap="round" stroke-linejoin="round" opacity="1" fill="none"></path><path d="M917.65 603.66L935.32 585.56" stroke="#181818" stroke-width="4" stroke-linecap="round" stroke-linejoin="round" opacity="1" fill="none"></path></g><g><path d="M1237.67 972.23L1123.08 972.39C1106.07 972.36 1092.42 958.72 1092.57 941.95L1092.63 713.47C1092.66 696.46 1106.31 682.81 1123.08 682.96L1237.67 682.8C1254.68 682.83 1268.33 696.48 1268.17 713.25L1268.12 941.73C1268.2 958.37 1254.55 972.03 1237.67 972.23Z" fill="#3c2c5b" opacity="1" stroke-width="4" stroke="none"></path><path d="M1226.2 819.38L1134.59 819.41C1124.89 819.43 1117.02 811.49 1117 801.79L1116.96 727.79C1116.94 718.09 1124.88 710.22 1134.58 710.2L1226.18 710.17C1235.88 710.15 1243.75 718.09 1243.77 727.79L1243.82 801.79C1243.83 811.49 1235.9 819.36 1226.2 819.38Z" fill="#ffc930" opacity="1" stroke-width="4" stroke="none"></path><path d="M1226.1 901.65L1134.5 901.68C1124.8 901.7 1116.92 893.76 1116.91 884.06L1116.82 862.87C1116.81 853.17 1124.74 845.3 1134.44 845.28L1226.05 845.25C1235.75 845.23 1243.62 853.17 1243.64 862.87L1243.72 884.06C1243.74 893.76 1236.04 901.51 1226.1 901.65Z" fill="#61ccff" opacity="1" stroke-width="4" stroke="none"></path></g><g><path d="M329.95 456.61L511.43 398.34 462.42 582.21 436.54 536.55 386.87 588.91 327.3 532.42 376.97 480.06 329.95 456.61Z" fill="#ffc930" opacity="1" stroke-width="4" stroke="none"></path></g><g><path d="M367.42 829.13L271.79 861.18 371.55 881.96 267.21 990.53 395.16 964.54 401.32 1063.03 454.13 1000.69" stroke="#231f20" stroke-width="4" stroke-linecap="round" stroke-linejoin="round" opacity="1" fill="none"></path></g><g><path d="M1144 229.58L1146.34 124.44 1213.92 218.34 1332.12 155.13 1266.68 266.24 1372.55 305.97 1256.51 342.45 1317.97 397.14" stroke="#231f20" stroke-width="4" stroke-linecap="round" stroke-linejoin="round" opacity="1" fill="none"></path></g><g><path d="M278.33 748.5C296.94 748.5 312.03 763.59 312.03 782.2 312.03 800.82 296.94 815.91 278.33 815.91 259.71 815.91 244.62 800.82 244.62 782.2 244.62 763.59 259.71 748.5 278.33 748.5Z" fill="#3c2c5b" opacity="1" stroke-width="4" stroke="none"></path></g><g><path d="M1283.74 505.7C1301.29 505.7 1315.52 491.47 1315.52 473.91 1315.52 456.35 1301.29 442.12 1283.74 442.12 1266.18 442.12 1251.95 456.35 1251.95 473.91 1251.95 491.47 1266.18 505.7 1283.74 505.7Z" fill="#61ccff" opacity="1" stroke-width="4" stroke="none"></path><path d="M1358.03 570.77C1371.05 570.77 1381.59 560.22 1381.59 547.21 1381.59 534.2 1371.05 523.65 1358.03 523.65 1345.02 523.65 1334.47 534.2 1334.47 547.21 1334.47 560.22 1345.02 570.77 1358.03 570.77Z" fill="#ffffff" opacity="1" stroke-width="4" stroke="none"></path></g><g><path d="M585.16 223.43C599.35 223.43 610.86 211.92 610.86 197.73 610.86 183.53 599.35 172.02 585.16 172.02 570.96 172.02 559.45 183.53 559.45 197.73 559.45 211.92 570.96 223.43 585.16 223.43Z" stroke="#ffffff" stroke-width="4" stroke-linecap="round" stroke-linejoin="round" opacity="1" fill="none"></path></g></svg>